<svg width="227" height="29" viewBox="0 0 227 29" fill="none" xmlns="http://www.w3.org/2000/svg">
<g clip-path="url(#clip0)">
<path d="M158.294 11.39H159.853C159.923 12.034 160.195 12.566 161.261 12.566C161.975 12.566 162.447 12.174 162.447 11.611C162.447 11.038 162.145 10.837 161.09 10.676C159.25 10.435 158.496 9.882 158.496 8.494C158.496 7.267 159.521 6.352 161.11 6.352C162.729 6.352 163.674 7.076 163.805 8.504H162.307C162.206 7.85 161.824 7.548 161.11 7.548C160.396 7.548 160.034 7.88 160.034 8.362C160.034 8.875 160.265 9.116 161.371 9.277C163.11 9.498 164.005 9.971 164.005 11.459C164.005 12.736 162.96 13.752 161.26 13.752C159.29 13.753 158.385 12.828 158.294 11.39ZM165.008 11.772V8.383H166.456V11.571C166.456 12.285 166.747 12.627 167.371 12.627C167.984 12.627 168.467 12.245 168.467 11.471V8.384H169.915V13.643H168.467V12.818C168.196 13.351 167.662 13.754 166.798 13.754C165.773 13.753 165.008 13.15 165.008 11.772ZM171.249 8.383H172.707V9.208C172.999 8.705 173.612 8.263 174.386 8.263C175.673 8.263 176.679 9.219 176.679 10.958V11.039C176.679 12.779 175.693 13.754 174.386 13.754C173.572 13.754 172.978 13.352 172.707 12.839V15.433H171.249V8.383ZM175.201 11.048V10.967C175.201 9.901 174.678 9.378 173.944 9.378C173.18 9.378 172.657 9.911 172.657 10.967V11.048C172.657 12.104 173.16 12.616 173.954 12.616C174.758 12.617 175.201 12.074 175.201 11.048ZM177.38 11.079V10.998C177.38 9.339 178.556 8.263 180.085 8.263C181.442 8.263 182.649 9.057 182.649 10.938V11.34H178.858C178.898 12.215 179.371 12.717 180.165 12.717C180.839 12.717 181.171 12.425 181.261 11.983H182.639C182.468 13.119 181.563 13.753 180.125 13.753C178.536 13.753 177.38 12.758 177.38 11.079ZM181.23 10.445C181.18 9.651 180.778 9.269 180.084 9.269C179.43 9.269 178.988 9.701 178.877 10.445H181.23ZM183.65 8.383H185.108V9.389C185.44 8.685 185.953 8.313 186.807 8.303V9.66C185.731 9.65 185.108 10.002 185.108 11.007V13.642H183.65V8.383ZM187.389 11.079V10.998C187.389 9.298 188.606 8.263 190.104 8.263C191.321 8.263 192.447 8.796 192.578 10.305H191.2C191.099 9.692 190.727 9.41 190.134 9.41C189.38 9.41 188.877 9.973 188.877 10.979V11.059C188.877 12.115 189.35 12.658 190.164 12.658C190.747 12.658 191.22 12.316 191.29 11.642H192.607C192.526 12.889 191.622 13.754 190.093 13.754C188.556 13.753 187.389 12.798 187.389 11.079ZM193.57 6H195.028V9.218C195.29 8.695 195.863 8.262 196.738 8.262C197.774 8.262 198.508 8.886 198.508 10.293V13.642H197.049V10.505C197.049 9.791 196.768 9.449 196.124 9.449C195.5 9.449 195.028 9.831 195.028 10.606V13.643H193.57V6ZM199.459 12.185C199.459 10.958 200.585 10.495 202.194 10.495H202.787V10.284C202.787 9.66 202.596 9.319 201.932 9.319C201.359 9.319 201.097 9.611 201.037 10.063H199.66C199.75 8.816 200.736 8.263 202.023 8.263C203.31 8.263 204.225 8.786 204.225 10.214V13.643H202.808V13.01C202.506 13.432 202.043 13.754 201.219 13.754C200.263 13.753 199.459 13.29 199.459 12.185ZM202.787 11.802V11.36H202.224C201.379 11.36 200.887 11.541 200.887 12.104C200.887 12.486 201.118 12.738 201.651 12.738C202.294 12.738 202.787 12.386 202.787 11.802ZM205.519 8.383H206.977V9.389C207.309 8.685 207.822 8.313 208.676 8.303V9.66C207.6 9.65 206.977 10.002 206.977 11.007V13.642H205.519V8.383ZM209.297 13.753H210.745C210.835 14.215 211.167 14.517 211.912 14.517C212.797 14.517 213.239 14.054 213.239 13.23V12.436C212.948 12.949 212.324 13.411 211.55 13.411C210.273 13.411 209.258 12.456 209.258 10.897V10.827C209.258 9.319 210.263 8.263 211.571 8.263C212.426 8.263 212.938 8.635 213.24 9.168V8.383H214.688V13.23C214.678 14.789 213.642 15.583 211.913 15.583C210.212 15.583 209.439 14.839 209.297 13.753ZM213.28 10.877V10.807C213.28 9.912 212.807 9.369 212.013 9.369C211.198 9.369 210.746 9.952 210.746 10.817V10.898C210.746 11.773 211.259 12.316 211.983 12.316C212.747 12.315 213.28 11.772 213.28 10.877ZM215.699 11.079V10.998C215.699 9.339 216.875 8.263 218.404 8.263C219.761 8.263 220.968 9.057 220.968 10.938V11.34H217.177C217.217 12.215 217.69 12.717 218.484 12.717C219.158 12.717 219.49 12.425 219.58 11.983H220.958C220.787 13.119 219.882 13.753 218.444 13.753C216.855 13.753 215.699 12.758 215.699 11.079ZM219.55 10.445C219.5 9.651 219.098 9.269 218.404 9.269C217.75 9.269 217.308 9.701 217.197 10.445H219.55ZM221.971 8.383H223.429V9.389C223.761 8.685 224.274 8.313 225.128 8.303V9.66C224.052 9.65 223.429 10.002 223.429 11.007V13.642H221.971V8.383ZM158.857 22.408H158.163V21.372H158.857V20.769C158.857 19.542 159.571 18.929 160.737 18.929C161.049 18.929 161.26 18.959 161.491 19.03V20.126C161.35 20.076 161.169 20.036 160.958 20.036C160.496 20.036 160.305 20.328 160.305 20.729V21.373H161.451V22.409H160.305V26.632H158.857V22.408ZM161.872 24.057V23.976C161.872 22.327 163.069 21.251 164.647 21.251C166.226 21.251 167.412 22.307 167.412 23.946V24.027C167.412 25.686 166.216 26.742 164.637 26.742C163.069 26.742 161.872 25.696 161.872 24.057ZM165.935 24.037V23.967C165.935 22.961 165.462 22.358 164.648 22.358C163.843 22.358 163.361 22.941 163.361 23.946V24.027C163.361 25.033 163.823 25.636 164.648 25.636C165.462 25.636 165.935 25.033 165.935 24.037ZM168.435 21.372H169.893V22.378C170.225 21.674 170.738 21.302 171.592 21.292V22.649C170.516 22.639 169.893 22.991 169.893 23.996V26.631H168.435V21.372ZM176.466 26.099L174.374 21.372H175.943L177.22 24.53L178.397 21.372H179.794L176.948 28.421H175.54L176.466 26.099ZM180.052 24.057V23.976C180.052 22.327 181.249 21.251 182.827 21.251C184.405 21.251 185.592 22.307 185.592 23.946V24.027C185.592 25.686 184.395 26.742 182.817 26.742C181.249 26.742 180.052 25.696 180.052 24.057ZM184.115 24.037V23.967C184.115 22.961 183.642 22.358 182.828 22.358C182.023 22.358 181.541 22.941 181.541 23.946V24.027C181.541 25.033 182.003 25.636 182.828 25.636C183.642 25.636 184.115 25.033 184.115 24.037ZM186.575 24.761V21.372H188.023V24.56C188.023 25.274 188.315 25.616 188.938 25.616C189.551 25.616 190.034 25.234 190.034 24.46V21.373H191.482V26.632H190.034V25.807C189.763 26.34 189.229 26.742 188.365 26.742C187.339 26.742 186.575 26.139 186.575 24.761ZM192.816 21.372H194.274V22.378C194.606 21.674 195.119 21.302 195.973 21.292V22.649C194.897 22.639 194.274 22.991 194.274 23.996V26.631H192.816V21.372ZM199.429 19.441H201.068V26.631H199.429V19.441ZM204.113 20.709H202.172V19.442H207.693V20.709H205.753V26.632H204.114V20.709H204.113ZM69.136 15.896H67.274C65.532 15.896 64.674 16.665 64.301 17.593C64.061 18.194 64.001 19.034 64.001 20.806V26.632H59.857V12.014H63.821V14.11C64.479 12.792 65.563 12.014 67.881 12.014H69.136V15.896ZM9.84 10.536H12.089V18.208C12.089 19.349 11.999 20.19 11.69 20.868C10.972 22.442 9.612 22.901 8.315 22.901C6.955 22.901 5.615 22.442 4.898 20.868C4.589 20.189 4.499 19.349 4.499 18.208V6.453H0V18.464C0 19.785 0.114 20.866 0.429 21.917C1.519 25.55 4.804 26.932 8.293 26.932C11.782 26.932 15.067 25.551 16.157 21.917C16.472 20.866 16.587 19.785 16.587 18.464V6.453H9.84V10.536ZM35.217 11.828C33.343 11.828 31.785 12.597 30.821 13.96C30.1 12.849 28.809 11.828 26.512 11.828C24.803 11.828 23.206 12.609 22.269 13.96V12.008H18.57L18.6 26.632H22.693V18.702C22.693 16.723 23.837 15.582 25.452 15.582C26.902 15.582 27.488 16.552 27.488 17.918V26.632H31.596V18.684C31.596 16.723 32.716 15.582 34.181 15.582C35.67 15.582 36.196 16.552 36.196 17.918V26.632H40.28V16.783C40.279 13.78 38.598 11.828 35.217 11.828ZM58.167 19.245C58.167 23.599 55.465 26.932 51.071 26.932C48.543 26.932 47.242 26.031 46.405 25.16V26.632H42.501V6.453H46.585L46.579 13.75C47.33 12.939 48.918 11.828 51.372 11.828C55.491 11.828 58.167 14.891 58.167 19.245ZM53.753 19.365C53.753 16.963 52.273 15.446 50.27 15.446C48.171 15.446 46.607 16.962 46.607 19.365C46.607 21.767 48.171 23.284 50.27 23.284C52.272 23.283 53.753 21.767 53.753 19.365ZM123.153 10.536H125.402V22.547H123.153V26.631H132.065V22.547H129.816V10.536H132.065V6.453H123.153V10.536ZM133.19 6.453V10.537H138.531V26.632H143.005V10.536H148.347V6.453H133.19ZM84.09 19.755V20.647H73.283C73.391 22.473 74.857 23.446 76.556 23.446C77.85 23.446 78.946 22.941 79.412 22.026H84C83.06 25.068 80.547 26.933 76.478 26.933C72.052 26.933 69.016 24.296 69.016 19.666C69.016 14.802 72.037 11.829 76.61 11.829C80.85 11.828 84.09 14.38 84.09 19.755ZM79.61 17.605C79.391 16.178 78.01 15.314 76.568 15.314C74.871 15.314 73.784 16.239 73.46 17.605H79.61ZM109.433 11.828H113.337V26.632H109.674L109.32 25.04C108.479 26.061 106.921 26.932 104.642 26.932C100.348 26.932 97.673 23.869 97.673 19.515C97.673 15.161 100.465 11.828 104.856 11.828C107.342 11.828 108.667 12.729 109.435 13.48V11.828H109.433ZM109.232 19.395C109.232 16.993 107.637 15.476 105.689 15.476C103.536 15.476 102.086 16.992 102.086 19.395C102.086 21.797 103.536 23.314 105.689 23.314C107.638 23.313 109.232 21.797 109.232 19.395ZM85.801 26.631H89.945V6.453H85.801V26.631ZM92.017 26.631H96.161V6.453H92.017V26.631Z" fill="#282A32"/>
<path d="M148.347 0H0V4.084H148.347V0Z" fill="#0050FF"/>
</g>
<defs>
<clipPath id="clip0">
<rect width="226.772" height="28.457" fill="white"/>
</clipPath>
</defs>
</svg>
