<?xml version="1.0" encoding="utf-8"?>
<!-- Generator: Adobe Illustrator 17.0.0, SVG Export Plug-In . SVG Version: 6.00 Build 0)  -->
<!DOCTYPE svg PUBLIC "-//W3C//DTD SVG 1.1//EN" "http://www.w3.org/Graphics/SVG/1.1/DTD/svg11.dtd">
<svg version="1.1" id="RGB_x5F_Light-BG_x5F_Short" xmlns="http://www.w3.org/2000/svg" xmlns:xlink="http://www.w3.org/1999/xlink"
	 x="0px" y="0px" width="43.997px" height="28.346px" viewBox="0 0 43.997 28.346" enable-background="new 0 0 43.997 28.346"
	 xml:space="preserve">
<g>
	<g>
		<path fill="#282A32" d="M9.832,8.184h6.742v12.001c0,1.32-0.114,2.4-0.429,3.45c-1.089,3.631-4.371,5.011-7.858,5.011
			s-6.769-1.38-7.858-5.011C0.114,22.586,0,21.506,0,20.186V8.184h4.494v11.746c0,1.14,0.09,1.98,0.399,2.658
			c0.717,1.572,2.055,2.031,3.414,2.031c1.296,0,2.655-0.459,3.372-2.031c0.309-0.678,0.399-1.518,0.399-2.658v-7.666H9.832V8.184z
			 M28.851,8.184v4.08h5.337v16.082h4.47V12.265h5.337v-4.08H28.851z M18.823,12.265h2.247v12.001h-2.247v4.08h8.905v-4.08H25.48
			V12.265h2.247v-4.08h-8.905V12.265z"/>
		<rect x="0" y="0" fill="#0050FF" width="43.997" height="4.084"/>
	</g>
</g>
</svg>
