<svg width="149" height="29" viewBox="0 0 149 29" fill="none" xmlns="http://www.w3.org/2000/svg">
<g clip-path="url(#clip0)">
<path d="M69.136 17.611H67.274C65.532 17.611 64.674 18.38 64.301 19.308C64.061 19.909 64.001 20.749 64.001 22.521V28.347H59.857V13.729H63.82V15.825C64.478 14.507 65.562 13.729 67.88 13.729H69.135V17.611H69.136ZM9.84 12.251H12.089V19.923C12.089 21.064 11.999 21.905 11.69 22.583C10.972 24.157 9.612 24.616 8.315 24.616C6.955 24.616 5.615 24.157 4.898 22.583C4.589 21.904 4.499 21.064 4.499 19.923V8.16797H0V20.179C0 21.5 0.114 22.581 0.429 23.632C1.519 27.265 4.804 28.647 8.293 28.647C11.782 28.647 15.067 27.266 16.157 23.632C16.472 22.581 16.586 21.5 16.586 20.179V8.16797H9.84V12.251ZM35.217 13.543C33.343 13.543 31.785 14.312 30.821 15.675C30.1 14.564 28.809 13.543 26.512 13.543C24.803 13.543 23.206 14.324 22.269 15.675V13.723H18.57L18.6 28.347H22.693V20.417C22.693 18.438 23.837 17.297 25.453 17.297C26.903 17.297 27.489 18.267 27.489 19.633V28.347H31.597V20.399C31.597 18.438 32.717 17.297 34.182 17.297C35.671 17.297 36.197 18.267 36.197 19.633V28.347H40.281V18.498C40.279 15.495 38.598 13.543 35.217 13.543ZM58.167 20.96C58.167 25.314 55.464 28.647 51.071 28.647C48.543 28.647 47.242 27.746 46.405 26.875V28.346H42.501V8.16797H46.585L46.579 15.465C47.33 14.654 48.918 13.543 51.371 13.543C55.491 13.543 58.167 16.606 58.167 20.96ZM53.753 21.08C53.753 18.678 52.273 17.161 50.27 17.161C48.171 17.161 46.606 18.677 46.606 21.08C46.606 23.482 48.171 24.999 50.27 24.999C52.272 24.998 53.753 23.482 53.753 21.08ZM123.153 12.251H125.402V24.262H123.153V28.346H132.065V24.262H129.816V12.251H132.065V8.16797H123.153V12.251V12.251ZM133.19 8.16797V12.252H138.532V28.347H143.006V12.251H148.348V8.16797H133.19ZM84.09 21.47V22.362H73.283C73.391 24.188 74.856 25.161 76.556 25.161C77.85 25.161 78.946 24.657 79.412 23.741H84C83.06 26.783 80.547 28.648 76.478 28.648C72.052 28.648 69.016 26.011 69.016 21.381C69.016 16.517 72.037 13.544 76.61 13.544C80.85 13.543 84.09 16.095 84.09 21.47ZM79.609 19.32C79.39 17.893 78.009 17.029 76.567 17.029C74.87 17.029 73.783 17.954 73.459 19.32H79.609ZM109.433 13.543H113.337V28.347H109.674L109.32 26.755C108.479 27.776 106.921 28.647 104.642 28.647C100.348 28.647 97.673 25.584 97.673 21.23C97.673 16.876 100.466 13.543 104.856 13.543C107.342 13.543 108.667 14.444 109.435 15.195V13.543H109.433ZM109.232 21.11C109.232 18.708 107.638 17.191 105.689 17.191C103.536 17.191 102.086 18.707 102.086 21.11C102.086 23.512 103.536 25.029 105.689 25.029C107.638 25.028 109.232 23.512 109.232 21.11ZM85.801 28.346H89.945V8.16797H85.801V28.346ZM92.017 28.346H96.161V8.16797H92.017V28.346Z" fill="#343536"/>
<path d="M148.347 0H0V4.084H148.347V0Z" fill="#343536"/>
</g>
<defs>
<clipPath id="clip0">
<rect width="148.347" height="28.647" fill="white"/>
</clipPath>
</defs>
</svg>
